<svg width="768" height="768" viewBox="0 0 768 768" fill="none" xmlns="http://www.w3.org/2000/svg" role="img" aria-labelledby="title desc">
  <title id="title">Steno mascot in courtroom</title>
  <desc id="desc">A cheerful stenographer robot in a courtroom, wearing a STENO cap and typing at a desk with a gavel and transcript notes nearby.</desc>
  <defs>
    <linearGradient id="wall" x1="384" y1="24" x2="384" y2="560" gradientUnits="userSpaceOnUse">
      <stop stop-color="#7A5434"/>
      <stop offset="1" stop-color="#4C321F"/>
    </linearGradient>
    <linearGradient id="desk" x1="88" y1="516" x2="680" y2="728" gradientUnits="userSpaceOnUse">
      <stop stop-color="#7B532E"/>
      <stop offset="1" stop-color="#5B3B21"/>
    </linearGradient>
    <linearGradient id="hat" x1="246" y1="176" x2="520" y2="236" gradientUnits="userSpaceOnUse">
      <stop stop-color="#2A3F7A"/>
      <stop offset="1" stop-color="#1B2851"/>
    </linearGradient>
    <linearGradient id="metal" x1="252" y1="232" x2="508" y2="532" gradientUnits="userSpaceOnUse">
      <stop stop-color="#C7C1B8"/>
      <stop offset="0.55" stop-color="#8D857C"/>
      <stop offset="1" stop-color="#5F5953"/>
    </linearGradient>
    <radialGradient id="eyeGlow" cx="0" cy="0" r="1" gradientUnits="userSpaceOnUse" gradientTransform="translate(0 0) scale(56)">
      <stop stop-color="#D9FF88"/>
      <stop offset="0.45" stop-color="#63FF45"/>
      <stop offset="1" stop-color="#1E9F2A"/>
    </radialGradient>
    <filter id="shadow" x="42" y="52" width="684" height="654" filterUnits="userSpaceOnUse" color-interpolation-filters="sRGB">
      <feFlood flood-opacity="0" result="BackgroundImageFix"/>
      <feColorMatrix in="SourceAlpha" type="matrix" values="0 0 0 0 0 0 0 0 0 0 0 0 0 0 0 0 0 0 127 0" result="hardAlpha"/>
      <feOffset dy="18"/>
      <feGaussianBlur stdDeviation="18"/>
      <feColorMatrix type="matrix" values="0 0 0 0 0.12 0 0 0 0 0.07 0 0 0 0 0.04 0 0 0 0.28 0"/>
      <feBlend mode="normal" in2="BackgroundImageFix" result="effect1_dropShadow_1_1"/>
      <feBlend mode="normal" in="SourceGraphic" in2="effect1_dropShadow_1_1" result="shape"/>
    </filter>
  </defs>
  <rect width="768" height="768" rx="40" fill="#E9D5BC"/>
  <rect x="0" y="0" width="768" height="532" fill="url(#wall)"/>
  <rect x="0" y="532" width="768" height="236" fill="#6B4528"/>
  <g opacity="0.95">
    <path d="M86 110L132 78L166 286H120L86 110Z" fill="#E9E8E6"/>
    <path d="M86 110L109 108L138 284H120L86 110Z" fill="#BD1F2D"/>
    <path d="M109 90L126 78L152 286H136L109 90Z" fill="#274C9A"/>
  </g>
  <g opacity="0.75" fill="#D8B365">
    <path d="M622 118C622 101 636 88 654 88C671 88 686 101 686 118V178H674V118C674 107 666 100 654 100C643 100 634 107 634 118V178H622V118Z"/>
    <path d="M604 152H704" stroke="#D8B365" stroke-width="10" stroke-linecap="round"/>
    <path d="M654 152V230" stroke="#D8B365" stroke-width="10" stroke-linecap="round"/>
    <path d="M626 162L604 206H648L626 162Z" fill="#D8B365"/>
    <path d="M682 162L660 206H704L682 162Z" fill="#D8B365"/>
  </g>
  <g filter="url(#shadow)">
    <rect x="72" y="510" width="624" height="178" rx="18" fill="url(#desk)"/>
    <rect x="72" y="510" width="624" height="178" rx="18" stroke="#3E2818" stroke-opacity="0.28"/>
  </g>
  <rect x="286" y="182" width="198" height="76" rx="34" fill="url(#hat)"/>
  <path d="M242 204C242 181 261 162 284 162H478C501 162 520 181 520 204V220H242V204Z" fill="#243769"/>
  <path d="M252 220H510C507 245 486 264 460 264H302C276 264 255 245 252 220Z" fill="url(#hat)"/>
  <text x="383" y="223" text-anchor="middle" fill="#F4EFE9" font-family="'Space Grotesk', 'Segoe UI', sans-serif" font-size="42" font-weight="700">STENO</text>
  <rect x="232" y="212" width="74" height="40" rx="14" fill="#243769"/>
  <rect x="210" y="228" width="34" height="12" rx="6" transform="rotate(-24 210 228)" fill="#E0A24B"/>
  <path d="M244 224L232 236" stroke="#8C5A26" stroke-width="5" stroke-linecap="round"/>
  <g>
    <rect x="250" y="222" width="266" height="228" rx="112" fill="url(#metal)" stroke="#433C36" stroke-width="4"/>
    <path d="M286 270C286 242 308 220 336 220H430C458 220 480 242 480 270V300H286V270Z" fill="#171C1F"/>
    <ellipse cx="382" cy="318" rx="102" ry="72" fill="#121619"/>
    <circle cx="336" cy="314" r="34" fill="url(#eyeGlow)"/>
    <circle cx="430" cy="314" r="34" fill="url(#eyeGlow)"/>
    <circle cx="346" cy="304" r="9" fill="#F3FFD5"/>
    <circle cx="440" cy="304" r="9" fill="#F3FFD5"/>
    <ellipse cx="334" cy="315" rx="62" ry="46" fill="none" stroke="#A07C52" stroke-width="6"/>
    <ellipse cx="432" cy="315" rx="62" ry="46" fill="none" stroke="#A07C52" stroke-width="6"/>
    <path d="M396 315H370" stroke="#A07C52" stroke-width="6" stroke-linecap="round"/>
    <path d="M350 378C360 396 406 396 418 378" stroke="#D8C5AB" stroke-width="10" stroke-linecap="round"/>
    <path d="M362 382C366 394 381 402 389 402C397 402 412 394 416 382" fill="#B15332"/>
    <rect x="342" y="352" width="82" height="30" rx="15" fill="#D7C4AA"/>
  </g>
  <rect x="204" y="262" width="46" height="134" rx="23" fill="#3A3B40" stroke="#1E1F23" stroke-width="4"/>
  <rect x="516" y="262" width="46" height="134" rx="23" fill="#3A3B40" stroke="#1E1F23" stroke-width="4"/>
  <g>
    <path d="M280 434C296 404 326 384 360 384H404C438 384 468 404 484 434L508 510H256L280 434Z" fill="#1E2E63"/>
    <path d="M334 390H434L416 510H352L334 390Z" fill="#F5F1EA"/>
    <path d="M346 390H422L410 510H358L346 390Z" fill="#25407C"/>
    <path d="M362 410L386 478L410 410" stroke="#F3E8D7" stroke-width="10" stroke-linecap="round" stroke-linejoin="round"/>
    <rect x="368" y="404" width="28" height="78" rx="12" fill="#25407C"/>
    <circle cx="334" cy="476" r="9" fill="#D7B16C"/>
    <circle cx="434" cy="476" r="9" fill="#D7B16C"/>
  </g>
  <g>
    <rect x="224" y="490" width="320" height="124" rx="18" fill="#2E2C2B" stroke="#141312" stroke-width="4"/>
    <rect x="248" y="468" width="272" height="64" rx="14" fill="#1E1D1D"/>
    <g fill="#3E3C3B">
      <rect x="262" y="482" width="24" height="20" rx="5"/>
      <rect x="292" y="482" width="24" height="20" rx="5"/>
      <rect x="322" y="482" width="24" height="20" rx="5"/>
      <rect x="352" y="482" width="24" height="20" rx="5"/>
      <rect x="382" y="482" width="24" height="20" rx="5"/>
      <rect x="412" y="482" width="24" height="20" rx="5"/>
      <rect x="442" y="482" width="24" height="20" rx="5"/>
      <rect x="472" y="482" width="24" height="20" rx="5"/>
      <rect x="278" y="508" width="24" height="20" rx="5"/>
      <rect x="308" y="508" width="24" height="20" rx="5"/>
      <rect x="338" y="508" width="24" height="20" rx="5"/>
      <rect x="368" y="508" width="24" height="20" rx="5"/>
      <rect x="398" y="508" width="24" height="20" rx="5"/>
      <rect x="428" y="508" width="24" height="20" rx="5"/>
      <rect x="458" y="508" width="24" height="20" rx="5"/>
    </g>
    <rect x="334" y="550" width="100" height="28" rx="10" fill="#E8D7BE"/>
    <path d="M350 564H418" stroke="#6E5E49" stroke-width="4" stroke-linecap="round" stroke-dasharray="6 8"/>
    <rect x="258" y="578" width="252" height="18" rx="9" fill="#232120"/>
  </g>
  <g fill="url(#metal)" stroke="#4D4742" stroke-width="4">
    <rect x="230" y="428" width="44" height="110" rx="20" transform="rotate(12 230 428)"/>
    <rect x="492" y="420" width="44" height="110" rx="20" transform="rotate(-12 492 420)"/>
    <rect x="248" y="498" width="30" height="42" rx="12" transform="rotate(12 248 498)"/>
    <rect x="494" y="490" width="30" height="42" rx="12" transform="rotate(-12 494 490)"/>
  </g>
  <g>
    <rect x="40" y="560" width="106" height="116" rx="10" fill="#EFE2C7" stroke="#8A6B46" stroke-width="3"/>
    <path d="M52 578H132" stroke="#8A6B46" stroke-width="3" stroke-linecap="round"/>
    <path d="M52 596H114" stroke="#8A6B46" stroke-width="3" stroke-linecap="round"/>
    <path d="M52 614H120" stroke="#8A6B46" stroke-width="3" stroke-linecap="round"/>
    <text x="56" y="618" fill="#4A3726" font-family="'IBM Plex Mono', Consolas, monospace" font-size="20" font-weight="600">TRANSCRIPT</text>
    <text x="56" y="642" fill="#4A3726" font-family="'IBM Plex Mono', Consolas, monospace" font-size="20" font-weight="600">NOTES</text>
    <path d="M70 668L96 694" stroke="#1B1B1B" stroke-width="6" stroke-linecap="round"/>
    <path d="M94 692L116 702" stroke="#1B1B1B" stroke-width="6" stroke-linecap="round"/>
  </g>
  <g>
    <rect x="586" y="540" width="138" height="96" rx="12" fill="#F1E4CC" stroke="#8A6B46" stroke-width="3"/>
    <rect x="574" y="554" width="138" height="96" rx="12" fill="#F6EBD8" stroke="#8A6B46" stroke-width="3"/>
    <rect x="562" y="568" width="138" height="96" rx="12" fill="#F9F0E0" stroke="#8A6B46" stroke-width="3"/>
    <text x="584" y="604" fill="#5A4836" font-family="'IBM Plex Mono', Consolas, monospace" font-size="15">THE STENOGRAPHER</text>
    <text x="584" y="624" fill="#5A4836" font-family="'IBM Plex Mono', Consolas, monospace" font-size="15">LOG / COURTROOM</text>
  </g>
  <g>
    <ellipse cx="592" cy="650" rx="60" ry="28" fill="#4A2B16" fill-opacity="0.35"/>
    <circle cx="560" cy="648" r="30" fill="#7E4F26"/>
    <circle cx="560" cy="648" r="20" fill="#5C3519"/>
    <rect x="564" y="634" width="106" height="24" rx="12" transform="rotate(22 564 634)" fill="#99611F"/>
    <rect x="600" y="640" width="60" height="12" rx="6" transform="rotate(22 600 640)" fill="#7B471A"/>
  </g>
</svg>